<svg xmlns="http://www.w3.org/2000/svg" width="28.192" height="25.455" viewBox="0 0 28.192 25.455">
  <g id="Group_275" data-name="Group 275" transform="translate(0.25 0.245)">
    <path id="Path_196" data-name="Path 196" d="M3973.983,346.545h.421c1.444,0,2.889,0,4.333,0a2.411,2.411,0,0,1,2.528,2.527q0,7.625,0,15.25a2.427,2.427,0,0,1-2.55,2.546q-11.265,0-22.529,0a2.429,2.429,0,0,1-2.608-2.591q-.008-4.87,0-9.74c0-1.8,0-3.6,0-5.405a2.416,2.416,0,0,1,2.6-2.588q2.131,0,4.263,0h.41c.006-.15.017-.273.017-.4,0-.762-.007-1.525,0-2.288a1.9,1.9,0,0,1,1.956-1.946q4.592-.011,9.185,0a1.922,1.922,0,0,1,1.968,1.98C3973.989,344.761,3973.983,345.627,3973.983,346.545Zm6.175,7.89a10.018,10.018,0,0,1-1.139.373c-1.775.359-3.555.694-5.334,1.037-1.118.215-2.237.429-3.377.647,0,.334.02.646-.005.955a4.594,4.594,0,0,1-.159,1.02,2.87,2.87,0,0,1-5.593-.81c-.014-.389,0-.778,0-1.171-.168-.036-.291-.064-.416-.088-2.369-.451-4.739-.894-7.105-1.356-.781-.153-1.552-.354-2.334-.534a1.189,1.189,0,0,0-.007.119q0,4.87,0,9.74a1.3,1.3,0,0,0,1.422,1.392q11.3,0,22.6,0a1.325,1.325,0,0,0,1.448-1.439c0-1.248,0-2.5,0-3.743Zm-15.674.9c.029-.052.049-.072.05-.091,0-.543,0-1.086.009-1.628a1.063,1.063,0,0,1,1.183-1.173q1.663-.005,3.327,0a1.1,1.1,0,0,1,1.255,1.247c0,.551,0,1.1,0,1.652a.984.984,0,0,0,.143,0c2.277-.435,4.556-.866,6.831-1.31a17.812,17.812,0,0,0,1.984-.461,1.235,1.235,0,0,0,.9-1.323c-.021-1-.005-2.01-.005-3.015,0-1.1-.478-1.582-1.581-1.582h-22.142c-.162,0-.324,0-.485.005a1.265,1.265,0,0,0-1.252,1.235c-.023,1.189,0,2.379,0,3.568a1.042,1.042,0,0,0,.578.959,3.3,3.3,0,0,0,.931.345c2.014.4,4.033.774,6.05,1.156C3963,355.059,3963.75,355.2,3964.484,355.335Zm8.39-8.832v-2.41c0-.786-.281-1.071-1.056-1.071h-5.852c-1.027,0-2.055,0-3.082,0-.5,0-.873.268-.886.694-.026.921-.008,1.843-.008,2.787h1.218v-2.292h8.428v2.29Zm-7.208,7.062c0,1.422,0,2.806,0,4.19a.929.929,0,0,0,.042.237,1.77,1.77,0,0,0,3.484-.449c.013-1.269,0-2.539,0-3.809a1.062,1.062,0,0,0-.029-.17Zm4.84-8.254h-6.168v1.216h6.168Z" transform="translate(-3953.575 -341.91)" fill="#264655" stroke="#264655" stroke-width="0.5"/>
    <path id="Path_204" data-name="Path 204" d="M4097.063,504.651a.553.553,0,0,1,.555-.544.545.545,0,1,1,0,1.09A.554.554,0,0,1,4097.063,504.651Z" transform="translate(-4083.773 -489.084)" fill="#264655" stroke="#264655" stroke-width="0.5"/>
  </g>
</svg>
