<svg xmlns="http://www.w3.org/2000/svg" width="205.504" height="169.282" viewBox="0 0 205.504 169.282">
  <g id="Group_219" data-name="Group 219" transform="translate(0 0)">
    <g id="Group_212" data-name="Group 212" transform="translate(0 57.271)">
      <path id="Path_158" data-name="Path 158" d="M3986.719,4067.436a79.966,79.966,0,0,1-11.118-45.311,70.775,70.775,0,0,1,47.586-62.137,62.7,62.7,0,0,1,39.116.288c14.25,4.712,26.875,14.319,34.331,27.442a.3.3,0,0,0,.514-.3c-13.377-23.545-42.994-35.634-69.158-29.4-27.107,6.455-48.286,30.657-52.338,58.022-2.639,17.815,1.461,36.243,10.555,51.7a.3.3,0,0,0,.514-.3Z" transform="translate(-3963.481 -3956.389)" fill="#9192ff" opacity="0.6"/>
      <g id="Group_211" data-name="Group 211" transform="translate(0 4.939)" opacity="0.3">
        <path id="Path_159" data-name="Path 159" d="M4088.743,4081.211c11.778-24.875,12.224-55.371-7.507-75.351a55.594,55.594,0,0,0-36.952-16.221c-19.945-.835-38,8.783-55.6,17.442-18.747,9.222-34.677,14.291-55.352,13.847-8.683-.187-18.055.554-25.023,5.989-17.575,13.708-8.253,37.461.48,52.553a113.98,113.98,0,0,0,11.963,16.894h158.6C4084.06,4089.308,4088.005,4082.77,4088.743,4081.211Z" transform="translate(-3898.356 -3989.589)" fill="#ebebff"/>
      </g>
    </g>
    <g id="Group_218" data-name="Group 218" transform="translate(3.958)">
      <g id="Group_213" data-name="Group 213" transform="translate(55.132 127.898)">
        <path id="Path_160" data-name="Path 160" d="M4304.2,4431.16a95.9,95.9,0,0,0-8.628,41.058l71.654-.037-2.927-38.143Z" transform="translate(-4295.572 -4431.16)" fill="#264655"/>
        <rect id="Rectangle_110" data-name="Rectangle 110" width="16.704" height="0.893" transform="matrix(0.072, -0.997, 0.997, 0.072, 38.234, 19.604)" fill="#1b1b43"/>
      </g>
      <g id="Group_215" data-name="Group 215" transform="translate(59.263)">
        <path id="Path_161" data-name="Path 161" d="M4356.309,3582.406a7.938,7.938,0,0,0-.008-6.145,7.12,7.12,0,0,0-1.893-2.443,8.016,8.016,0,0,0-2.74-1.458,8.1,8.1,0,0,0-6.08.468,9.365,9.365,0,0,0-4.164,4.608l-.215-.088a10.664,10.664,0,0,1,1.6-2.858,8.228,8.228,0,0,1,9.03-2.693,7.818,7.818,0,0,1,4.916,4.258,7.2,7.2,0,0,1,.567,3.261,9.64,9.64,0,0,1-.8,3.178Z" transform="translate(-4338.552 -3571.403)" fill="#1b1b43"/>
        <path id="Path_162" data-name="Path 162" d="M4431.244,3616.679c.172,4.912-2.526,9.512-6.181,12.712a23.763,23.763,0,0,1-14.113,5.787c-5.243.312-9.154,5.12-14.339,5.766-5.59.7-8.744-5.092-9.841-9.72a24.706,24.706,0,0,1,13.959-28.031,23.974,23.974,0,0,1,19.364.137c4.888,2.166,9.944,5.919,10.958,11.553A12.641,12.641,0,0,1,4431.244,3616.679Z" transform="translate(-4376.789 -3596.783)" fill="#1b1b43"/>
        <ellipse id="Ellipse_16" data-name="Ellipse 16" cx="9.259" cy="9.353" rx="9.259" ry="9.353" transform="translate(0 1.513)" fill="#1b1b43"/>
        <rect id="Rectangle_111" data-name="Rectangle 111" width="18.833" height="26.289" transform="translate(22.551 34.53)" fill="#ffbc96"/>
        <path id="Path_163" data-name="Path 163" d="M4511.915,3825.28v17.631c-9.027-2.3-13.412-8.04-15.662-15.37Z" transform="translate(-4470.531 -3787.513)" fill="#1b1b43"/>
        <path id="Path_164" data-name="Path 164" d="M4497.754,3664.753s-.007,2.208-.2,5.439c-.125,1.964-.315,4.3-.625,6.754-.148,1.16-.321,2.344-.523,3.528a50.434,50.434,0,0,1-1.529,6.569c-1.214,3.844-2.934,6.944-5.374,7.968a7.889,7.889,0,0,1-1.249.4c-3.351.78-8.533-.036-13.383-3.837a23.762,23.762,0,0,1-3.231-3.065c-1.16-1.321-.756-2.583-1.773-4.355-.1-.155.089-.887,0-1.042l-1.41-2.476.619-4.612.3-2.219,1.44-10.74,13.537-3.9Z" transform="translate(-4446.867 -3646.105)" fill="#ffbc96"/>
        <path id="Path_165" data-name="Path 165" d="M4446.738,3651.521c5.28-1.89,7.007-2.377,9.686-9.369,13.288,4.363,21.371,3.818,22.71,1.587l-.767-7.187-12.755-7.159-14.318,4.816-6.378,8.33Z" transform="translate(-4426.83 -3620.767)" fill="#1b1b43"/>
        <ellipse id="Ellipse_17" data-name="Ellipse 17" cx="4.348" cy="5.7" rx="4.348" ry="5.7" transform="matrix(0.849, -0.528, 0.528, 0.849, 15.184, 30.147)" fill="#ffbc96"/>
        <path id="Path_166" data-name="Path 166" d="M4401.95,3637.16a24.627,24.627,0,0,0-2.556,2.126,19.839,19.839,0,0,0-2.094,2.35,18.173,18.173,0,0,0-1.674,2.649,21.119,21.119,0,0,0-1.262,3.065,6.515,6.515,0,0,1-.056-3.546,8.935,8.935,0,0,1,1.57-3.246,9.324,9.324,0,0,1,2.68-2.394A6.81,6.81,0,0,1,4401.95,3637.16Z" transform="translate(-4383.564 -3627.378)" fill="#d6df22"/>
        <path id="Path_167" data-name="Path 167" d="M4453.471,3771.24a3.349,3.349,0,0,1,1.514.493,4.736,4.736,0,0,1,1.214,1.038,4.191,4.191,0,0,1,.791,1.4,2.49,2.49,0,0,1,.012,1.618l-.273-.055a3.228,3.228,0,0,0-.325-1.34,5.621,5.621,0,0,0-.751-1.172,6.379,6.379,0,0,0-1.01-.988,5.059,5.059,0,0,0-1.226-.724Z" transform="translate(-4434.065 -3741.512)" fill="#1b1b43"/>
        <g id="Group_214" data-name="Group 214" transform="translate(27.709 27.032)">
          <ellipse id="Ellipse_18" data-name="Ellipse 18" cx="1.174" cy="1.543" rx="1.174" ry="1.543" transform="translate(9.675 3.204)" fill="#1b1b43"/>
          <ellipse id="Ellipse_19" data-name="Ellipse 19" cx="1.03" cy="1.353" rx="1.03" ry="1.353" transform="translate(18.155 4.143)" fill="#1b1b43"/>
          <path id="Path_168" data-name="Path 168" d="M4615.707,3801.614a.688.688,0,0,0,.216.455,1.4,1.4,0,0,0,.451.3,2.574,2.574,0,0,1,1.157.77,1.158,1.158,0,0,1,.189.8,1.392,1.392,0,0,1-.317.71,1.776,1.776,0,0,1-1.268.572l-.052-.227a2,2,0,0,0,.9-.663.8.8,0,0,0,.053-.863,3.086,3.086,0,0,0-.915-.665,1.711,1.711,0,0,1-.526-.5.907.907,0,0,1-.122-.736Z" transform="translate(-4599.698 -3794.366)" fill="#d28572"/>
          <path id="Path_169" data-name="Path 169" d="M4582.438,3840.724a7.458,7.458,0,0,1,2.85.062,6.669,6.669,0,0,1,1.379.426,3.522,3.522,0,0,1,1.225.828l-.2.285a22.825,22.825,0,0,0-2.583-.669c-.88-.192-1.768-.357-2.671-.582Z" transform="translate(-4571.601 -3827.597)" fill="#1b1b43"/>
          <path id="Path_170" data-name="Path 170" d="M4559.663,3754.186c.047.5-1.656.391-3.255.651-1.733.283-2.975.466-2.975-.037s1.322-1.21,3.05-1.524C4558.528,3752.9,4559.569,3753.2,4559.663,3754.186Z" transform="translate(-4546.913 -3753.121)" fill="#1b1b43"/>
          <path id="Path_171" data-name="Path 171" d="M4627.526,3757.734c-.114.489,1.2.585,2.373,1.036,1.274.488,2.189.819,2.268.323s-.815-1.355-2.08-1.875C4628.59,3756.6,4627.751,3756.772,4627.526,3757.734Z" transform="translate(-4609.978 -3756.301)" fill="#1b1b43"/>
          <circle id="Ellipse_20" data-name="Ellipse 20" cx="3.744" cy="3.744" r="3.744" transform="translate(0 11.714) rotate(-80.902)" fill="#fe5b52" opacity="0.2"/>
          <path id="Path_172" data-name="Path 172" d="M4639.547,3802.44a50.513,50.513,0,0,1-1.53,6.569,3.737,3.737,0,0,1,1.53-6.569Z" transform="translate(-4617.719 -3795.103)" fill="#fe5b52" opacity="0.2"/>
        </g>
      </g>
      <g id="Group_216" data-name="Group 216" transform="translate(0 54.41)">
        <path id="Path_173" data-name="Path 173" d="M3947.371,4069.757c-8.182-3.174-21.719-14.628-22.314-16.414-.823-2.468,3.868-.744,7.587,1.934Z" transform="translate(-3924.961 -4035.046)" fill="#d28572"/>
        <path id="Path_174" data-name="Path 174" d="M4314.4,3981.479l-5.4,9.747-10.574,19.106a6.2,6.2,0,0,1-5.421,3.2h-56.225a6.2,6.2,0,0,1-6.194-6.391l.731-23.48-18.357-11.514,6.4-15.989a27.611,27.611,0,0,1,19.7-16.714l5.361-.494,19.22-1.785,13.87,1.791,9.562,1.231a25.463,25.463,0,0,1,19.821,17.429l3.666,11.657Z" transform="translate(-4170.117 -3937.16)" fill="#d6df22"/>
        <path id="Path_175" data-name="Path 175" d="M4016.043,4108.524a27.007,27.007,0,0,1-4.552,6.688c-3.719,3.909-9.544,6.908-16.768.351a12.517,12.517,0,0,1-1.042-1.065c-6.021-6.854-7.9-22.064-13.537-36.72-6.623-2.529-19.63-13.483-16.078-16.125a.4.4,0,0,1,.429-.024c1.5.768,10.461,5.224,16.441,5.046,6.545-.2,12.895-1.393,18.054,8.723S4016.043,4108.524,4016.043,4108.524Z" transform="translate(-3957.735 -4043.069)" fill="#ffbc96"/>
        <path id="Path_176" data-name="Path 176" d="M4212.955,4172.318l3.17,26.108,9.521,9.025c6.347-8.431,5.652-17.058,5.667-23.622Z" transform="translate(-4170.113 -4137.336)" fill="#ffbc96"/>
        <path id="Path_177" data-name="Path 177" d="M4789.934,4165.211l-5.4,9.746-11.774,2.5-1.161-15.316,14.489-9.146Z" transform="translate(-4645.653 -4120.892)" fill="#ffbc96"/>
        <rect id="Rectangle_112" data-name="Rectangle 112" width="0.595" height="16.965" transform="translate(42.376 34.871) rotate(-27.127)" fill="#d28572"/>
        <rect id="Rectangle_113" data-name="Rectangle 113" width="21.747" height="0.595" transform="matrix(0.041, -0.999, 0.999, 0.041, 60.893, 46.482)" fill="#1b1b43"/>
        <rect id="Rectangle_114" data-name="Rectangle 114" width="0.595" height="32.11" transform="translate(124.211 24.589) rotate(-4.645)" fill="#1b1b43"/>
        <path id="Path_178" data-name="Path 178" d="M4456.922,3940.236c0,6.076-7.462,11.008-16.661,11.008s-16.661-4.933-16.661-11.008a6.667,6.667,0,0,1,.119-1.291l19.221-1.785,13.87,1.791A7.093,7.093,0,0,1,4456.922,3940.236Z" transform="translate(-4349.422 -3937.16)" fill="#ffbc96"/>
        <path id="Path_179" data-name="Path 179" d="M4459.3,4045.6a28.89,28.89,0,0,1-13.651-3.746l.284-.522c6.982,3.787,17.577,6.556,28.388-1.76l.362.472A24.793,24.793,0,0,1,4459.3,4045.6Z" transform="translate(-4368.188 -4024.339)" fill="#1b1b43"/>
        <path id="Path_180" data-name="Path 180" d="M4184.409,4391.781c-3.718,3.91-9.545,6.909-16.768.352a12.517,12.517,0,0,1-1.042-1.066,10.508,10.508,0,0,1,17.809.714Z" transform="translate(-4130.654 -4319.638)" fill="#fe5b52" opacity="0.2"/>
      </g>
      <g id="Group_217" data-name="Group 217" transform="translate(102.145 81.243)">
        <rect id="Rectangle_115" data-name="Rectangle 115" width="25.736" height="5.95" transform="translate(0 44.027)" fill="#1b1b43"/>
        <path id="Path_181" data-name="Path 181" d="M4788.833,4167.511h-60.495l21.541-49.977h60.495Z" transform="translate(-4710.972 -4117.534)" fill="#ebebff"/>
      </g>
      <path id="Path_182" data-name="Path 182" d="M4829.059,4395.421a1.889,1.889,0,0,0-2.123.033c-.7.532-.738,1.406-.02,2.621,1.045,1.769,12.217,11.012,24.434,1.447s-3.375-3.858-3.375-3.858,2.894-7.475.965-8.2-6.27,7.958-6.27,7.958.964-7.958-1.367-7.475-3.7,7.314-3.7,7.314-.081-5.144-1.688-5.224-3.215,7.636-3.215,7.636Z" transform="translate(-4692.297 -4266.032)" fill="#ffbc96"/>
    </g>
    <rect id="Rectangle_116" data-name="Rectangle 116" width="187.45" height="0.595" transform="translate(5.529 168.687)" fill="#1b1b43"/>
  </g>
</svg>
