<svg id="Group_180" data-name="Group 180" xmlns="http://www.w3.org/2000/svg" width="17.038" height="17.031" viewBox="0 0 17.038 17.031">
  <path id="Path_112" data-name="Path 112" d="M1942.051-808.729c.345.045.693.073,1.034.138a8.273,8.273,0,0,1,6.17,4.332,6.268,6.268,0,0,1,.685,3.571,6.955,6.955,0,0,1-2.557,4.761,8.8,8.8,0,0,1-4.555,2.01,9.948,9.948,0,0,1-2.832-.011.427.427,0,0,0-.259.054q-1.73,1.04-3.453,2.091c-.042.025-.085.049-.148.085,0-.073-.008-.13-.008-.187,0-1.131,0-2.263,0-3.394a.313.313,0,0,0-.145-.286,7.415,7.415,0,0,1-2.671-3.5,6.112,6.112,0,0,1-.349-1.567,1,1,0,0,0-.033-.143v-1a.792.792,0,0,0,.031-.126,6.1,6.1,0,0,1,.682-2.36,8.3,8.3,0,0,1,6.172-4.331c.341-.065.689-.093,1.034-.138Zm-4.869,15.124c.05-.027.1-.054.153-.085.6-.362,1.213-.713,1.8-1.093a1.056,1.056,0,0,1,1.026-.206.682.682,0,0,0,.148.017,8.113,8.113,0,0,0,3.5-.251,7.2,7.2,0,0,0,4.079-2.856,5.5,5.5,0,0,0,.97-3.827,5.749,5.749,0,0,0-1.695-3.454,7.815,7.815,0,0,0-4.969-2.269,8.034,8.034,0,0,0-2.543.163,7.232,7.232,0,0,0-4.7,3.076,5.4,5.4,0,0,0-.576,5.121,6.258,6.258,0,0,0,2.568,3.07.448.448,0,0,1,.236.449C1937.173-795.041,1937.183-794.332,1937.183-793.605Z" transform="translate(-1932.934 808.729)" fill="#2186b5"/>
  <path id="Path_113" data-name="Path 113" d="M2006.533-712.277q-1.863,0-3.726,0a.53.53,0,0,1-.53-.456.529.529,0,0,1,.383-.586.729.729,0,0,1,.2-.021h7.352a.532.532,0,0,1,.582.54.532.532,0,0,1-.582.524Z" transform="translate(-1998.014 719.199)" fill="#2186b5"/>
  <path id="Path_114" data-name="Path 114" d="M2022.807-660.253c-.887,0-1.774,0-2.661,0a.53.53,0,0,1-.53-.456.529.529,0,0,1,.383-.585.728.728,0,0,1,.2-.021h5.223a.532.532,0,0,1,.582.54.532.532,0,0,1-.582.523Z" transform="translate(-2014.289 670.369)" fill="#2186b5"/>
</svg>
