<svg xmlns="http://www.w3.org/2000/svg" width="16.318" height="20.378" viewBox="0 0 16.318 20.378">
  <g id="conpytrading-icon-dark" transform="translate(0 -1.254)">
    <rect id="Rectangle_379" data-name="Rectangle 379" width="1.102" height="2.155" transform="matrix(0.449, -0.894, 0.894, 0.449, 10.673, 8.762)" fill="#636363"/>
    <path id="Path_257" data-name="Path 257" d="M5.157,11.133A3.937,3.937,0,0,1,5.135,3.26h0a3.962,3.962,0,0,1,3.96,3.914,3.938,3.938,0,0,1-3.914,3.96ZM5.139,4.362a2.835,2.835,0,0,0,.018,5.669h.018a2.835,2.835,0,0,0-.017-5.669H5.139Z" transform="translate(0.125 0.205)" fill="#636363"/>
    <path id="Path_258" data-name="Path 258" d="M7.668,16.18H0l.413-4.155.3-.128a10.085,10.085,0,0,0,2.13-1.222l.661.883a11.237,11.237,0,0,1-2.06,1.222l-.229,2.3H7.668Z" transform="translate(0 0.962)" fill="#636363"/>
    <rect id="Rectangle_380" data-name="Rectangle 380" width="1.101" height="2.155" transform="matrix(0.449, -0.894, 0.894, 0.449, 7.742, 12.57)" fill="#636363"/>
    <path id="Path_259" data-name="Path 259" d="M9.9,14.574H6.958v-1.1H9.149L10.3,10.6,11.321,11Z" transform="translate(0.71 0.954)" fill="#636363"/>
    <path id="Path_260" data-name="Path 260" d="M15.209,14.18h-3.23l-1.114-2.24.988-.491.808,1.628h2.548Z" transform="translate(1.109 1.041)" fill="#636363"/>
    <path id="Path_261" data-name="Path 261" d="M6.981,20.286,8.22,16.139,7.349,15.7l.494-.986,1.7.852-.688,2.3,2.236-1.346,1.749.78-.8-1.615,1.65-1.243.663.88-.918.692,1.764,3.544-4.028-1.8Z" transform="translate(0.713 1.347)" fill="#636363"/>
    <path id="Path_262" data-name="Path 262" d="M10.914,7.233,9.838,7A3.719,3.719,0,0,0,8.027,2.954a5.23,5.23,0,0,0-4.876.008l-.515-.975a6.347,6.347,0,0,1,5.919,0A4.82,4.82,0,0,1,10.914,7.233Z" transform="translate(0.269 0)" fill="#636363"/>
  </g>
</svg>
