<svg xmlns="http://www.w3.org/2000/svg" width="25.293" height="25.293" viewBox="0 0 25.293 25.293">
  <g id="Icon_feather-settings" data-name="Icon feather-settings" transform="translate(0.6 0.6)">
    <path id="Path_131" data-name="Path 131" d="M20.071,16.785A3.285,3.285,0,1,1,16.785,13.5,3.285,3.285,0,0,1,20.071,16.785Z" transform="translate(-4.739 -4.739)" fill="none" stroke="#264655" stroke-linecap="round" stroke-linejoin="round" stroke-width="1.2"/>
    <path id="Path_132" data-name="Path 132" d="M21.65,16.832a1.807,1.807,0,0,0,.361,1.993l.066.066a2.191,2.191,0,1,1-3.1,3.1l-.066-.066a1.822,1.822,0,0,0-3.088,1.292V23.4a2.19,2.19,0,1,1-4.381,0v-.1a1.807,1.807,0,0,0-1.183-1.654,1.807,1.807,0,0,0-1.993.361l-.066.066a2.191,2.191,0,1,1-3.1-3.1l.066-.066a1.822,1.822,0,0,0-1.292-3.088H3.69a2.19,2.19,0,0,1,0-4.381h.1a1.807,1.807,0,0,0,1.654-1.183,1.807,1.807,0,0,0-.361-1.993L5.015,8.2a2.191,2.191,0,1,1,3.1-3.1l.066.066a1.807,1.807,0,0,0,1.993.361h.088a1.807,1.807,0,0,0,1.1-1.654V3.69a2.19,2.19,0,0,1,4.381,0v.1a1.822,1.822,0,0,0,3.088,1.292l.066-.066a2.191,2.191,0,1,1,3.1,3.1l-.066.066a1.807,1.807,0,0,0-.361,1.993v.088a1.807,1.807,0,0,0,1.654,1.1H23.4a2.19,2.19,0,0,1,0,4.381h-.1a1.807,1.807,0,0,0-1.654,1.1Z" transform="translate(-1.5 -1.5)" fill="none" stroke="#264655" stroke-linecap="round" stroke-linejoin="round" stroke-width="1.2"/>
  </g>
</svg>
