<svg xmlns="http://www.w3.org/2000/svg" width="14.272" height="16.391" viewBox="0 0 14.272 16.391">
  <path id="Path_117" data-name="Path 117" d="M2635.94-786.653a6.591,6.591,0,0,1-.8-.249,2.655,2.655,0,0,1-1.437-3.24.186.186,0,0,0-.1-.262q-2.083-1.282-4.158-2.573l-.095-.055a2.681,2.681,0,0,1-2.433.834,2.573,2.573,0,0,1-1.655-.976,2.669,2.669,0,0,1,.246-3.612,2.7,2.7,0,0,1,3.844.128l.484-.3q1.9-1.173,3.792-2.345c.091-.056.119-.1.083-.213a2.678,2.678,0,0,1,2.014-3.471,2.7,2.7,0,0,1,3.2,2.321,2.7,2.7,0,0,1-2.234,2.957,2.6,2.6,0,0,1-2.258-.682,1.372,1.372,0,0,1-.138-.172l-4.432,2.745a2.7,2.7,0,0,1,0,1.943l1.511.937c.919.569,1.84,1.136,2.756,1.711.115.072.171.053.265-.034a2.57,2.57,0,0,1,2.705-.615,2.565,2.565,0,0,1,1.807,2.127,2.675,2.675,0,0,1-2.237,3.065.484.484,0,0,0-.087.031Zm-10.28-8.194a1.693,1.693,0,0,0,1.691,1.7,1.707,1.707,0,0,0,1.708-1.689,1.706,1.706,0,0,0-1.705-1.708A1.692,1.692,0,0,0,2625.659-794.847Zm10.6-7.2a1.687,1.687,0,0,0-1.7,1.684,1.7,1.7,0,0,0,1.682,1.714,1.714,1.714,0,0,0,1.717-1.7A1.7,1.7,0,0,0,2636.262-802.051Zm-.01,14.412a1.7,1.7,0,0,0,1.7-1.69,1.713,1.713,0,0,0-1.708-1.708,1.7,1.7,0,0,0-1.691,1.7A1.687,1.687,0,0,0,2636.252-787.639Z" transform="translate(-2624.669 803.045)" fill="#264655"/>
</svg>
