<svg xmlns="http://www.w3.org/2000/svg" width="17.205" height="17.562" viewBox="0 0 17.205 17.562">
  <g id="monthly-score-card" transform="translate(0 0.005)">
    <path id="Path_263" data-name="Path 263" d="M18.869,22.682H15.551a.453.453,0,1,1,0-.905h2.865v-.512H15.324a.453.453,0,1,1,0-.905h3.545a.452.452,0,0,1,.453.453v1.417A.452.452,0,0,1,18.869,22.682Z" transform="translate(-8.141 -11.148)" fill="#636363"/>
    <path id="Path_264" data-name="Path 264" d="M11.792,20.989H1.87A1.872,1.872,0,0,1,0,19.12V8.134a1.872,1.872,0,0,1,1.87-1.87h.354a.453.453,0,0,1,0,.905H1.87a.966.966,0,0,0-.965.965V19.119a.966.966,0,0,0,.965.964h9.922a.962.962,0,0,0,.95-.8.453.453,0,0,1,.892.154A1.866,1.866,0,0,1,11.792,20.989Z" transform="translate(0 -3.432)" fill="#636363"/>
    <path id="Path_265" data-name="Path 265" d="M26.5,10.323a.453.453,0,0,1-.453-.453V8.134a.966.966,0,0,0-.964-.965h-.355a.453.453,0,1,1,0-.905h.355a1.872,1.872,0,0,1,1.87,1.87V9.87A.452.452,0,0,1,26.5,10.323Z" transform="translate(-13.288 -3.432)" fill="#636363"/>
    <path id="Path_266" data-name="Path 266" d="M13.5,19.869H3.583a.452.452,0,0,1-.453-.453V9.849a.453.453,0,0,1,.905,0v9.115H13.5a.453.453,0,1,1,0,.905Z" transform="translate(-1.713 -5.146)" fill="#636363"/>
    <path id="Path_267" data-name="Path 267" d="M13.8,5.864H6.717a.452.452,0,0,1-.453-.453V3.285a1.163,1.163,0,0,1,1.158-1.16h.3A2.584,2.584,0,0,1,10.259,0h0A2.581,2.581,0,0,1,12.8,2.124h.295a1.163,1.163,0,0,1,1.162,1.161V5.412A.452.452,0,0,1,13.8,5.864ZM7.169,4.959h6.182V3.285a.257.257,0,0,0-.257-.256h-.708a.452.452,0,0,1-.453-.453A1.676,1.676,0,0,0,10.261.9h0A1.676,1.676,0,0,0,8.585,2.572a.457.457,0,0,1-.453.457H7.423a.256.256,0,0,0-.254.256Z" transform="translate(-3.429)" fill="#636363"/>
    <circle id="Ellipse_43" data-name="Ellipse 43" cx="0.532" cy="0.532" r="0.532" transform="translate(6.3 1.867)" fill="#636363"/>
    <path id="Path_268" data-name="Path 268" d="M30.5,31.416a1.689,1.689,0,0,1-1.2-.494c-.012-.012-.023-.024-.033-.037l-1.565-1.95a1.419,1.419,0,0,1,.1-1.913h0a1.421,1.421,0,0,1,1.915-.088l1.945,1.56c.013.011.025.022.037.033a1.691,1.691,0,0,1-1.2,2.888ZM29.962,30.3a.788.788,0,0,0,1.33-.572.782.782,0,0,0-.215-.541l-1.928-1.548a.52.52,0,0,0-.738.728Z" transform="translate(-14.99 -14.567)" fill="#636363"/>
    <path id="Path_269" data-name="Path 269" d="M11.1,16.565H8.281a.453.453,0,1,1,0-.905H11.1a.453.453,0,0,1,0,.905Z" transform="translate(-4.285 -8.576)" fill="#636363"/>
    <path id="Path_270" data-name="Path 270" d="M10.5,19.7H8.281a.453.453,0,1,1,0-.905H10.5a.453.453,0,0,1,0,.905Z" transform="translate(-4.285 -10.29)" fill="#636363"/>
    <path id="Path_271" data-name="Path 271" d="M10.426,22.83H8.281a.453.453,0,1,1,0-.905h2.146a.453.453,0,0,1,0,.905Z" transform="translate(-4.285 -12.005)" fill="#636363"/>
    <path id="Path_272" data-name="Path 272" d="M18.493,21.063a3.642,3.642,0,1,1,3.642-3.642A3.645,3.645,0,0,1,18.493,21.063Zm0-6.378a2.737,2.737,0,1,0,2.737,2.737A2.74,2.74,0,0,0,18.493,14.684Z" transform="translate(-8.131 -7.546)" fill="#636363"/>
    <path id="Path_273" data-name="Path 273" d="M27.859,27.357a.45.45,0,0,1-.324-.136l-.574-.587A.453.453,0,1,1,27.608,26l.574.587a.452.452,0,0,1-.323.769Z" transform="translate(-14.689 -14.162)" fill="#636363"/>
  </g>
</svg>
