<svg xmlns="http://www.w3.org/2000/svg" width="18.508" height="18.444" viewBox="0 0 18.508 18.444">
  <g id="Group_302" data-name="Group 302" transform="translate(-250.547 233.048)">
    <path id="Path_275" data-name="Path 275" d="M258.749-219.691q0,1.94,0,3.88c0,.483.172.651.657.651h7.73c.455,0,.489.04.434.492a8.342,8.342,0,0,1-9.006,7.364,8,8,0,0,1-6.633-4.27,8.358,8.358,0,0,1,5.876-12.345c.173-.031.348-.055.523-.076.363-.043.418,0,.418.364Q258.75-221.661,258.749-219.691Zm-.41-3.862a7.94,7.94,0,0,0-7.067,8.029,7.967,7.967,0,0,0,8.5,7.825,7.886,7.886,0,0,0,7.348-7.05h-7.664c-.808,0-1.12-.31-1.12-1.118q0-3.645,0-7.29Z" transform="translate(0 -7.584)" fill="#636363" stroke="#636363" stroke-width="0.5"/>
    <path id="Path_276" data-name="Path 276" d="M399.054-223.05q-1.983,0-3.966,0c-.372,0-.407-.036-.407-.4q0-3.981,0-7.962c0-.364.039-.409.413-.382a8.689,8.689,0,0,1,7.049,4.212,8.566,8.566,0,0,1,1.283,4.105c.025.381-.023.426-.4.426Q401.037-223.048,399.054-223.05Zm3.948-.438a8.277,8.277,0,0,0-2.8-5.777,8.205,8.205,0,0,0-5.105-2.113v.419c0,2.371.005,4.743-.007,7.114,0,.295.07.381.373.38,2.391-.013,4.782-.007,7.173-.008C402.739-223.472,402.844-223.481,403-223.488Z" transform="translate(-134.623 -1)" fill="#636363" stroke="#636363" stroke-width="0.5"/>
    <path id="Path_277" data-name="Path 277" d="M460.379-142.227c0,.584-.306.913-.837.907s-.811-.338-.81-.936c0-.578.311-.929.822-.931S460.381-142.832,460.379-142.227Zm-1.262-.058a2.378,2.378,0,0,0,.014.252.417.417,0,0,0,.436.391.388.388,0,0,0,.4-.384,1.032,1.032,0,0,0-.027-.517.639.639,0,0,0-.375-.3c-.2-.055-.349.1-.414.289A1.218,1.218,0,0,0,459.117-142.285Z" transform="translate(-194.909 -84.404)" fill="#636363"/>
    <path id="Path_278" data-name="Path 278" d="M425.455-180.839c0-.586.3-.921.825-.92s.827.34.825.951c0,.584-.306.91-.84.9S425.453-180.243,425.455-180.839Zm1.261.037c0-.4-.139-.642-.408-.627a.6.6,0,0,0-.38.208.81.81,0,0,0,.029.83.587.587,0,0,0,.41.143C426.674-180.288,426.716-180.543,426.716-180.8Z" transform="translate(-163.588 -48.099)" fill="#636363"/>
    <path id="Path_279" data-name="Path 279" d="M441.126-172.329q-.842,1.323-1.658,2.663a.152.152,0,0,0-.018.045.165.165,0,0,0,.265.16.168.168,0,0,0,.034-.038c.558-.873,1.1-1.754,1.649-2.633.016-.026.031-.053.046-.083a.2.2,0,0,0-.03-.23S441.283-172.536,441.126-172.329Z" transform="translate(-176.757 -56.846)" fill="#636363"/>
    <g id="Group_302-2" data-name="Group 302" transform="translate(254.849 -223.547)">
      <path id="Path_280" data-name="Path 280" d="M319.78-82.371v-.595a1.714,1.714,0,0,1-.9-.259l.141-.394a1.57,1.57,0,0,0,.848.253c.418,0,.7-.241.7-.577s-.23-.524-.665-.7c-.6-.235-.971-.506-.971-1.018a.966.966,0,0,1,.889-.948V-87.2h.365v.571a1.57,1.57,0,0,1,.765.206l-.147.388a1.423,1.423,0,0,0-.742-.2c-.453,0-.624.271-.624.506,0,.306.218.459.73.671.606.247.912.553.912,1.077a1.024,1.024,0,0,1-.93,1v.612Z" transform="translate(-318.879 87.204)" fill="#636363"/>
    </g>
  </g>
</svg>
