<svg xmlns="http://www.w3.org/2000/svg" width="16.022" height="16.019" viewBox="0 0 16.022 16.019">
  <g id="Group_179" data-name="Group 179" transform="translate(0 0)">
    <path id="Path_115" data-name="Path 115" d="M2287.125-761.391v.183c0,2.133-.015,4.266,0,6.4a3.915,3.915,0,0,0,2.054,3.527,3.881,3.881,0,0,0,2,.513c1.126,0,2.253,0,3.379,0a.572.572,0,0,1,.569.47.572.572,0,0,1-.391.643.694.694,0,0,1-.21.028c-1.174,0-2.348.006-3.522,0a5.149,5.149,0,0,1-4.952-4.286,6.328,6.328,0,0,1-.071-.924c-.006-2.1,0-4.206,0-6.31v-.231c-.058.049-.1.078-.13.112-.393.391-.782.785-1.177,1.174a.561.561,0,0,1-.658.117.546.546,0,0,1-.315-.586.682.682,0,0,1,.169-.341q1.128-1.147,2.273-2.278a.553.553,0,0,1,.815,0q1.149,1.139,2.288,2.288a.56.56,0,0,1,.006.8.563.563,0,0,1-.816,0c-.388-.378-.768-.765-1.152-1.148C2287.243-761.28,2287.2-761.319,2287.125-761.391Z" transform="translate(-2283.693 765.642)" fill="#264655"/>
    <path id="Path_116" data-name="Path 116" d="M2383.693-788.716v-.189c0-2.139.013-4.278,0-6.417a3.912,3.912,0,0,0-1.868-3.4,3.886,3.886,0,0,0-2.165-.624c-.751,0-1.5,0-2.253,0a.573.573,0,0,1-.573-.486.576.576,0,0,1,.407-.634.7.7,0,0,1,.194-.021c.792,0,1.585,0,2.378,0a5.163,5.163,0,0,1,4.637,3.174,5.384,5.384,0,0,1,.392,2.036c-.005,2.109,0,4.219,0,6.328v.223c.07-.065.114-.1.154-.142.375-.375.749-.751,1.126-1.124a.574.574,0,0,1,.842-.033.573.573,0,0,1-.03.842q-1.11,1.115-2.225,2.225a.567.567,0,0,1-.88,0q-1.115-1.11-2.225-2.225a.572.572,0,0,1-.022-.842.569.569,0,0,1,.829.028C2382.823-789.59,2383.239-789.171,2383.693-788.716Z" transform="translate(-2371.106 800.492)" fill="#264655"/>
  </g>
</svg>
