<svg xmlns="http://www.w3.org/2000/svg" width="18.046" height="13.836" viewBox="0 0 18.046 13.836">
  <g id="trade-executed" transform="translate(-1476.729 -2929)">
    <path id="Path_1296" data-name="Path 1296" d="M1136.211,1232.186a5.1,5.1,0,0,0-.552-.122,1.911,1.911,0,0,1-.484-.125.139.139,0,0,1-.082-.126c0-.058.048-.105.136-.142a1.056,1.056,0,0,1,.426-.042.985.985,0,0,1,.419.089.278.278,0,0,1,.156.211v.012h.358v-.012a.355.355,0,0,0-.115-.246.778.778,0,0,0-.329-.176,1.556,1.556,0,0,0-.179-.043l.009-.19-.515-.025-.008.178a1.7,1.7,0,0,0-.27.031.732.732,0,0,0-.329.137.291.291,0,0,0-.121.211.256.256,0,0,0,.082.195.694.694,0,0,0,.268.155,3.454,3.454,0,0,0,.482.117c.226.043.373.074.438.093a.581.581,0,0,1,.211.093.143.143,0,0,1,.059.117.157.157,0,0,1-.073.117.5.5,0,0,1-.209.077,1.472,1.472,0,0,1-.328.017,1.509,1.509,0,0,1-.373-.061.6.6,0,0,1-.237-.121.312.312,0,0,1-.091-.182v-.011h-.352v.011a.386.386,0,0,0,.128.279.864.864,0,0,0,.36.2,1.857,1.857,0,0,0,.286.061l-.009.195.515.024.009-.193a1.709,1.709,0,0,0,.265-.035.8.8,0,0,0,.345-.152.31.31,0,0,0,.128-.223.283.283,0,0,0-.1-.223A.852.852,0,0,0,1136.211,1232.186Z" transform="translate(344.065 1707.95)" fill="#264653"/>
    <path id="Path_1292" data-name="Path 1292" d="M1135.181,1110.75l.745-3.7-4.124.575,1.14,1.211-5.387,4.964-1.821-3.343-4.865,3.58v2.2l4.536-3.081.97,1.778a4.018,4.018,0,0,1,2.7-.787c.143,0,.282,0,.42.013l4.526-4.174.734.778c.135-.009.273-.013.411-.013Z" transform="translate(356.677 1821.95)" fill="#d6df22"/>
    <path id="Path_1293" data-name="Path 1293" d="M1113.847,1254.025a3.524,3.524,0,0,1-2.851-1.005.624.624,0,0,0-.076.292c0,.709,1.314,1.285,2.927,1.285s2.928-.575,2.928-1.285a.614.614,0,0,0-.077-.292A3.517,3.517,0,0,1,1113.847,1254.025Z" transform="translate(365.809 1687.968)" fill="#d6df22"/>
    <path id="Path_1294" data-name="Path 1294" d="M1113.847,1228.19c-1.616,0-2.927.575-2.927,1.284s1.314,1.284,2.927,1.284,2.928-.575,2.928-1.284S1115.464,1228.19,1113.847,1228.19Zm.912,1.807a.806.806,0,0,1-.345.152,1.711,1.711,0,0,1-.265.035l-.009.193-.515-.024.009-.195a1.86,1.86,0,0,1-.286-.061.862.862,0,0,1-.359-.2.386.386,0,0,1-.128-.279v-.011h.352v.011a.311.311,0,0,0,.091.182.6.6,0,0,0,.237.121,1.5,1.5,0,0,0,.373.061,1.473,1.473,0,0,0,.328-.017.5.5,0,0,0,.209-.077.157.157,0,0,0,.073-.116.144.144,0,0,0-.059-.118.583.583,0,0,0-.211-.093c-.066-.019-.213-.05-.438-.093a3.442,3.442,0,0,1-.482-.117.694.694,0,0,1-.268-.155.255.255,0,0,1-.082-.195.291.291,0,0,1,.121-.211.731.731,0,0,1,.328-.137,1.7,1.7,0,0,1,.27-.031l.008-.178.515.025-.009.19a1.514,1.514,0,0,1,.179.043.776.776,0,0,1,.329.176.355.355,0,0,1,.115.246v.012h-.358v-.012a.277.277,0,0,0-.156-.211.985.985,0,0,0-.419-.089,1.051,1.051,0,0,0-.426.042c-.089.037-.134.082-.136.142a.139.139,0,0,0,.082.126,1.905,1.905,0,0,0,.484.125,5.13,5.13,0,0,1,.552.122.853.853,0,0,1,.324.171.284.284,0,0,1,.1.223.311.311,0,0,1-.124.218Z" transform="translate(365.809 1710.759)" fill="#d6df22"/>
    <path id="Path_1295" data-name="Path 1295" d="M1113.847,1245.1c-1.616,0-2.927-.575-2.927-1.285v.484a.559.559,0,0,0,.076.272,4.544,4.544,0,0,0,5.7,0,.552.552,0,0,0,.077-.272v-.484C1116.775,1244.53,1115.464,1245.1,1113.847,1245.1Z" transform="translate(365.809 1696.413)" fill="#264653"/>
    <path id="Path_1297" data-name="Path 1297" d="M1188.067,1257.335a3.522,3.522,0,0,1-2.851-1.005.624.624,0,0,0-.076.292c0,.71,1.314,1.284,2.927,1.284s2.928-.575,2.928-1.284a.622.622,0,0,0-.076-.292A3.518,3.518,0,0,1,1188.067,1257.335Z" transform="translate(297.685 1684.93)" fill="#d6df22"/>
    <path id="Path_1298" data-name="Path 1298" d="M1188.067,1244.683c-1.4,0-2.56-.468-2.855-1.013a.621.621,0,0,0-.072.284c0,.709,1.314,1.285,2.927,1.285s2.928-.575,2.928-1.285a.62.62,0,0,0-.072-.284C1190.631,1244.215,1189.462,1244.683,1188.067,1244.683Z" transform="translate(297.685 1696.55)" fill="#d6df22"/>
    <path id="Path_1299" data-name="Path 1299" d="M1188.067,1248.406c-1.616,0-2.927-.575-2.927-1.284v.481a.56.56,0,0,0,.076.272,4.546,4.546,0,0,0,5.7,0,.556.556,0,0,0,.076-.272v-.483C1190.995,1247.83,1189.684,1248.406,1188.067,1248.406Z" transform="translate(297.685 1693.384)" fill="#264653"/>
    <path id="Path_1300" data-name="Path 1300" d="M1188.067,1232.035a3.523,3.523,0,0,1-2.851-1.005.619.619,0,0,0-.076.292c0,.71,1.314,1.284,2.927,1.284s2.928-.575,2.928-1.284a.621.621,0,0,0-.076-.292A3.52,3.52,0,0,1,1188.067,1232.035Z" transform="translate(297.685 1708.152)" fill="#d6df22"/>
    <path id="Path_1301" data-name="Path 1301" d="M1188.067,1235.864c-1.616,0-2.927-.575-2.927-1.284v.483a.554.554,0,0,0,.072.265c.295.545,1.46,1.013,2.855,1.013s2.561-.468,2.856-1.013a.552.552,0,0,0,.072-.265v-.483C1190.995,1235.29,1189.684,1235.864,1188.067,1235.864Z" transform="translate(297.685 1704.894)" fill="#264653"/>
    <path id="Path_1302" data-name="Path 1302" d="M1188.067,1219.3a3.523,3.523,0,0,1-2.851-1.005.622.622,0,0,0-.076.292c0,.709,1.314,1.284,2.927,1.284s2.928-.575,2.928-1.284a.621.621,0,0,0-.076-.292A3.52,3.52,0,0,1,1188.067,1219.3Z" transform="translate(297.685 1719.846)" fill="#d6df22"/>
    <path id="Path_1303" data-name="Path 1303" d="M1188.067,1223.125c-1.616,0-2.927-.575-2.927-1.285v.483a.563.563,0,0,0,.076.272,4.546,4.546,0,0,0,5.7,0,.562.562,0,0,0,.076-.272v-.483C1190.995,1222.549,1189.684,1223.125,1188.067,1223.125Z" transform="translate(297.685 1716.587)" fill="#264653"/>
    <path id="Path_1304" data-name="Path 1304" d="M1185.367,1194.161a.721.721,0,0,0-.227.493c0,.71,1.314,1.284,2.927,1.284s2.928-.575,2.928-1.284c0-.646-1.091-1.181-2.508-1.271-.137-.009-.277-.013-.42-.013A4.077,4.077,0,0,0,1185.367,1194.161Zm3.083-.509-.008.19a1.564,1.564,0,0,1,.178.043.778.778,0,0,1,.328.176.349.349,0,0,1,.115.246v.012h-.358v-.012a.278.278,0,0,0-.156-.211.985.985,0,0,0-.419-.089,1.055,1.055,0,0,0-.426.042c-.089.037-.134.082-.136.142a.14.14,0,0,0,.082.126,1.912,1.912,0,0,0,.484.126,5.15,5.15,0,0,1,.553.121.842.842,0,0,1,.323.171.283.283,0,0,1,.1.223.31.31,0,0,1-.128.223.8.8,0,0,1-.344.152,1.735,1.735,0,0,1-.265.035l-.009.193-.515-.025.009-.194a1.839,1.839,0,0,1-.285-.061.862.862,0,0,1-.361-.2.39.39,0,0,1-.128-.279v-.012h.352v.012a.311.311,0,0,0,.091.182.6.6,0,0,0,.237.122,1.508,1.508,0,0,0,.373.061,1.458,1.458,0,0,0,.328-.017.5.5,0,0,0,.21-.082.156.156,0,0,0,.072-.116.144.144,0,0,0-.059-.117.589.589,0,0,0-.211-.094c-.066-.018-.213-.049-.439-.092a3.457,3.457,0,0,1-.482-.116.7.7,0,0,1-.268-.155.255.255,0,0,1-.082-.195.294.294,0,0,1,.121-.211.73.73,0,0,1,.328-.137,1.72,1.72,0,0,1,.27-.031l.008-.178Z" transform="translate(297.685 1742.719)" fill="#d6df22"/>
    <path id="Path_1305" data-name="Path 1305" d="M1188.067,1210.374c-1.616,0-2.927-.575-2.927-1.284v.485a.561.561,0,0,0,.076.272,4.546,4.546,0,0,0,5.7,0,.557.557,0,0,0,.076-.272v-.484C1190.995,1209.8,1189.684,1210.374,1188.067,1210.374Z" transform="translate(297.685 1728.29)" fill="#264653"/>
    <path id="Path_1306" data-name="Path 1306" d="M1209.662,1196.727a1.7,1.7,0,0,0-.27.031.732.732,0,0,0-.328.137.3.3,0,0,0-.121.211.255.255,0,0,0,.082.195.7.7,0,0,0,.268.155,3.492,3.492,0,0,0,.482.117c.226.043.373.074.438.092a.59.59,0,0,1,.211.094.144.144,0,0,1,.059.117.156.156,0,0,1-.072.116.5.5,0,0,1-.21.082,1.452,1.452,0,0,1-.329.017,1.521,1.521,0,0,1-.373-.061.6.6,0,0,1-.236-.122.31.31,0,0,1-.091-.182v-.011h-.352v.011a.389.389,0,0,0,.128.279.861.861,0,0,0,.36.2,1.838,1.838,0,0,0,.285.061l-.009.194.515.025.009-.193a1.75,1.75,0,0,0,.265-.035.807.807,0,0,0,.344-.152.31.31,0,0,0,.128-.223.283.283,0,0,0-.1-.223.839.839,0,0,0-.323-.171,5.109,5.109,0,0,0-.553-.122,1.917,1.917,0,0,1-.484-.126.14.14,0,0,1-.082-.126c0-.058.048-.105.136-.142a1.053,1.053,0,0,1,.426-.042.985.985,0,0,1,.419.089.277.277,0,0,1,.156.211v.012h.358v-.012a.35.35,0,0,0-.115-.246.775.775,0,0,0-.328-.176,1.59,1.59,0,0,0-.178-.043l.008-.19-.515-.025Z" transform="translate(275.95 1739.8)" fill="#264653"/>
    <path id="Path_1307" data-name="Path 1307" d="M1262.287,1254.122c-1.4,0-2.56-.467-2.855-1.012a.616.616,0,0,0-.072.283c0,.709,1.314,1.284,2.927,1.284s2.928-.575,2.928-1.284a.619.619,0,0,0-.072-.283C1264.848,1253.655,1263.683,1254.122,1262.287,1254.122Z" transform="translate(229.56 1687.885)" fill="#d6df22"/>
    <path id="Path_1308" data-name="Path 1308" d="M1262.287,1241.455a3.523,3.523,0,0,1-2.851-1.005.624.624,0,0,0-.076.292c0,.71,1.314,1.284,2.927,1.284s2.928-.575,2.928-1.284a.623.623,0,0,0-.076-.292A3.53,3.53,0,0,1,1262.287,1241.455Z" transform="translate(229.56 1699.506)" fill="#d6df22"/>
    <path id="Path_1309" data-name="Path 1309" d="M1262.287,1245.284c-1.616,0-2.927-.575-2.927-1.284v.484a.558.558,0,0,0,.072.264c.295.545,1.461,1.012,2.855,1.012s2.561-.467,2.856-1.012a.558.558,0,0,0,.072-.264V1244C1265.215,1244.709,1263.9,1245.284,1262.287,1245.284Z" transform="translate(229.56 1696.247)" fill="#264653"/>
    <path id="Path_1310" data-name="Path 1310" d="M1262.287,1228.765a3.523,3.523,0,0,1-2.851-1.005.625.625,0,0,0-.076.292c0,.71,1.314,1.284,2.927,1.284s2.928-.575,2.928-1.284a.623.623,0,0,0-.076-.292A3.532,3.532,0,0,1,1262.287,1228.765Z" transform="translate(229.56 1711.154)" fill="#d6df22"/>
    <path id="Path_1311" data-name="Path 1311" d="M1262.287,1232.544c-1.616,0-2.927-.575-2.927-1.284v.483a.56.56,0,0,0,.076.272,4.545,4.545,0,0,0,5.7,0,.559.559,0,0,0,.076-.272v-.483C1265.215,1231.969,1263.9,1232.544,1262.287,1232.544Z" transform="translate(229.56 1707.941)" fill="#264653"/>
    <path id="Path_1312" data-name="Path 1312" d="M1262.287,1219.815c-1.616,0-2.927-.575-2.927-1.285v.482a.559.559,0,0,0,.076.272,4.538,4.538,0,0,0,5.7,0,.559.559,0,0,0,.076-.272v-.482C1265.215,1219.24,1263.9,1219.815,1262.287,1219.815Z" transform="translate(229.56 1719.625)" fill="#264653"/>
    <path id="Path_1313" data-name="Path 1313" d="M1330.65,1218.52Z" transform="translate(164.125 1719.635)" fill="#fff"/>
    <path id="Path_1314" data-name="Path 1314" d="M1259.36,1218.52h0Z" transform="translate(229.56 1719.635)" fill="#fff"/>
    <path id="Path_1315" data-name="Path 1315" d="M1262.287,1215.986a3.52,3.52,0,0,1-2.851-1.006.623.623,0,0,0-.076.291h0c0,.71,1.314,1.285,2.927,1.285s2.928-.575,2.928-1.285h0a.622.622,0,0,0-.076-.291A3.516,3.516,0,0,1,1262.287,1215.986Z" transform="translate(229.56 1722.884)" fill="#d6df22"/>
    <path id="Path_1316" data-name="Path 1316" d="M1262.287,1203.352c-1.4,0-2.56-.467-2.855-1.012a.614.614,0,0,0-.072.283c0,.71,1.314,1.284,2.927,1.284s2.928-.575,2.928-1.284a.617.617,0,0,0-.072-.283C1264.848,1202.887,1263.683,1203.352,1262.287,1203.352Z" transform="translate(229.56 1734.486)" fill="#d6df22"/>
    <path id="Path_1317" data-name="Path 1317" d="M1262.287,1207.075c-1.616,0-2.927-.575-2.927-1.285v.484a.559.559,0,0,0,.076.271,4.543,4.543,0,0,0,5.7,0,.56.56,0,0,0,.076-.271v-.484C1265.215,1206.5,1263.9,1207.075,1262.287,1207.075Z" transform="translate(229.56 1731.319)" fill="#264653"/>
    <path id="Path_1318" data-name="Path 1318" d="M1262.287,1190.685a3.523,3.523,0,0,1-2.851-1.005.624.624,0,0,0-.076.292c0,.71,1.314,1.284,2.927,1.284s2.928-.575,2.928-1.284a.623.623,0,0,0-.076-.292A3.519,3.519,0,0,1,1262.287,1190.685Z" transform="translate(229.56 1746.106)" fill="#d6df22"/>
    <path id="Path_1319" data-name="Path 1319" d="M1262.287,1194.515c-1.616,0-2.927-.575-2.927-1.285v.483a.559.559,0,0,0,.072.265c.295.545,1.461,1.012,2.855,1.012s2.561-.467,2.856-1.012a.56.56,0,0,0,.072-.265v-.483C1265.215,1193.94,1263.9,1194.515,1262.287,1194.515Z" transform="translate(229.56 1742.848)" fill="#264653"/>
    <path id="Path_1320" data-name="Path 1320" d="M1262.287,1177.945a3.523,3.523,0,0,1-2.851-1.005.624.624,0,0,0-.076.292c0,.709,1.314,1.284,2.927,1.284s2.928-.575,2.928-1.284a.622.622,0,0,0-.076-.292A3.519,3.519,0,0,1,1262.287,1177.945Z" transform="translate(229.56 1757.8)" fill="#d6df22"/>
    <path id="Path_1321" data-name="Path 1321" d="M1262.287,1181.775c-1.616,0-2.927-.575-2.927-1.285v.483a.564.564,0,0,0,.076.272,4.546,4.546,0,0,0,5.7,0,.563.563,0,0,0,.076-.272v-.483C1265.215,1181.2,1263.9,1181.775,1262.287,1181.775Z" transform="translate(229.56 1754.541)" fill="#264653"/>
    <path id="Path_1322" data-name="Path 1322" d="M1262.305,1154.679c1.617,0,2.928-.575,2.928-1.284s-1.3-1.282-2.917-1.284h-.01c-.14,0-.278,0-.411.013-1.421.088-2.515.623-2.515,1.271C1259.378,1154.1,1260.689,1154.679,1262.305,1154.679Zm-.986-1.15h.352v.012a.309.309,0,0,0,.091.182.6.6,0,0,0,.237.122,1.508,1.508,0,0,0,.373.061,1.471,1.471,0,0,0,.328-.017.518.518,0,0,0,.21-.077.159.159,0,0,0,.072-.117.14.14,0,0,0-.058-.117.577.577,0,0,0-.212-.094c-.065-.019-.213-.05-.439-.093a3.5,3.5,0,0,1-.482-.117.711.711,0,0,1-.268-.154.26.26,0,0,1-.082-.2.3.3,0,0,1,.121-.211.743.743,0,0,1,.328-.137,1.719,1.719,0,0,1,.27-.031l.008-.178.515.024-.008.19a1.575,1.575,0,0,1,.178.043.77.77,0,0,1,.329.177.348.348,0,0,1,.114.246v.012h-.357v-.012a.277.277,0,0,0-.156-.211,1.009,1.009,0,0,0-.418-.089,1.073,1.073,0,0,0-.427.042c-.089.038-.134.082-.136.142a.138.138,0,0,0,.082.126,1.747,1.747,0,0,0,.484.126,5.376,5.376,0,0,1,.553.122.848.848,0,0,1,.323.171.283.283,0,0,1,.1.222.313.313,0,0,1-.128.224.817.817,0,0,1-.344.151,1.735,1.735,0,0,1-.265.035l-.009.193-.515-.024.009-.195a1.758,1.758,0,0,1-.285-.061.854.854,0,0,1-.361-.2.391.391,0,0,1-.128-.279Z" transform="translate(229.542 1780.591)" fill="#d6df22"/>
    <path id="Path_1323" data-name="Path 1323" d="M1265.215,1167.75c0,.71-1.314,1.284-2.928,1.284s-2.927-.575-2.927-1.284v.483a.558.558,0,0,0,.076.272,4.546,4.546,0,0,0,5.7,0,.559.559,0,0,0,.076-.272Z" transform="translate(229.56 1766.235)" fill="#264653"/>
    <path id="Path_1324" data-name="Path 1324" d="M1283.584,1156.824a1.777,1.777,0,0,0,.285.061l-.009.195.515.024.009-.193a1.7,1.7,0,0,0,.265-.035.813.813,0,0,0,.344-.151.314.314,0,0,0,.128-.224.284.284,0,0,0-.1-.222.849.849,0,0,0-.323-.171,5.351,5.351,0,0,0-.553-.122,1.924,1.924,0,0,1-.484-.125.139.139,0,0,1-.082-.126c0-.058.048-.1.136-.142a1.071,1.071,0,0,1,.427-.042,1.012,1.012,0,0,1,.418.089.277.277,0,0,1,.156.211v.012h.357v-.012a.348.348,0,0,0-.114-.246.771.771,0,0,0-.328-.177,1.589,1.589,0,0,0-.178-.042l.008-.19-.515-.024-.008.178a1.759,1.759,0,0,0-.27.03.746.746,0,0,0-.328.137.3.3,0,0,0-.121.211.262.262,0,0,0,.082.2.712.712,0,0,0,.268.155,3.477,3.477,0,0,0,.482.116c.226.043.374.074.439.093a.571.571,0,0,1,.212.094.14.14,0,0,1,.058.117.159.159,0,0,1-.072.117.512.512,0,0,1-.21.077,1.466,1.466,0,0,1-.328.017,1.51,1.51,0,0,1-.373-.061.6.6,0,0,1-.236-.122.306.306,0,0,1-.091-.181v-.012h-.352v.012a.391.391,0,0,0,.128.279A.854.854,0,0,0,1283.584,1156.824Z" transform="translate(207.77 1777.782)" fill="#264653"/>
  </g>
</svg>
