<svg xmlns="http://www.w3.org/2000/svg" width="16.809" height="17.978" viewBox="0 0 16.809 17.978">
  <g id="trading-symbols" transform="translate(-14202.541 5508.763)">
    <path id="Path_798" data-name="Path 798" d="M538.393,296.568c0,1.214-2.569,2.2-5.737,2.2s-5.736-.983-5.736-2.2,2.568-2.2,5.736-2.2S538.393,295.354,538.393,296.568Z" transform="translate(13675.665 -5803.133)" fill="#d6df22"/>
    <path id="Path_799" data-name="Path 799" d="M538,328.628c-.949.783-3.139,1.33-5.692,1.33-2.6,0-4.833-.57-5.748-1.378-.011.009-.021.019-.032.03v1.581c.9.822,3.146,1.407,5.78,1.407,2.552,0,4.743-.548,5.692-1.33Z" transform="translate(13676.011 -5833.44)" fill="#d6df22"/>
    <path id="Path_800" data-name="Path 800" d="M538,352.488c-.949.781-3.139,1.33-5.692,1.33-2.6,0-4.833-.57-5.748-1.378-.011.009-.021.019-.032.03v1.58c.9.824,3.146,1.408,5.78,1.408,2.552,0,4.743-.549,5.692-1.33Z" transform="translate(13676.011 -5854.579)" fill="#d6df22"/>
    <path id="Path_801" data-name="Path 801" d="M538,376.338c-.949.783-3.139,1.331-5.692,1.331-2.6,0-4.833-.57-5.748-1.379-.011.01-.021.021-.032.03V377.9c.9.824,3.146,1.407,5.78,1.407,2.552,0,4.743-.548,5.692-1.329Z" transform="translate(13676.011 -5875.708)" fill="#d6df22"/>
    <path id="Path_802" data-name="Path 802" d="M538,400.2c-.949.783-3.139,1.331-5.692,1.331-2.6,0-4.833-.57-5.748-1.379-.011.01-.021.021-.032.03v1.581c.9.822,3.146,1.407,5.78,1.407,2.552,0,4.743-.548,5.692-1.329Z" transform="translate(13676.011 -5896.846)" fill="#d6df22"/>
    <path id="Path_803" data-name="Path 803" d="M565.238,336.344a6.994,6.994,0,1,1-6.994-6.994A6.994,6.994,0,0,1,565.238,336.344Z" transform="translate(13654.111 -5834.123)" fill="#d6df22"/>
    <path id="Path_804" data-name="Path 804" d="M579.7,352.946a4.856,4.856,0,1,1-4.856-4.856A4.856,4.856,0,0,1,579.7,352.946Z" transform="translate(13637.509 -5850.725)" fill="#d6df22"/>
    <path id="Path_805" data-name="Path 805" d="M593.721,358.43v-.06a1.336,1.336,0,0,0,.658-1.141c0-1.058-.656-1.5-1.674-1.513v-.859a.327.327,0,0,0-.327-.327h-.065a.326.326,0,0,0-.327.327v.853h-.6v-.853a.326.326,0,0,0-.326-.327H591a.327.327,0,0,0-.327.327v.853h-1.019a.329.329,0,0,0-.327.327v.456a.327.327,0,0,0,.327.327h.281v3.765h-.281a.327.327,0,0,0-.327.326v.456a.327.327,0,0,0,.327.327h1.019v.741a.327.327,0,0,0,.327.327h.066a.326.326,0,0,0,.326-.327V361.7h.6v.741a.326.326,0,0,0,.327.327h.065a.327.327,0,0,0,.327-.327V361.7h.017a1.773,1.773,0,0,0,1.912-1.825A1.506,1.506,0,0,0,593.721,358.43Zm-.685-1.035a.564.564,0,0,1-.641.59h-1.032a.131.131,0,0,1-.131-.131v-.875a.132.132,0,0,1,.131-.131h1.075A.531.531,0,0,1,593.036,357.4Zm-.57,3.163h-1.1a.131.131,0,0,1-.131-.131v-1.268a.132.132,0,0,1,.131-.131h1.1a.768.768,0,1,1,0,1.531Z" transform="translate(13620.375 -5856.43)" fill="#264653"/>
    <path id="Path_806" data-name="Path 806" d="M564.72,348.93a6.16,6.16,0,1,1,6.16-6.154A6.16,6.16,0,0,1,564.72,348.93Zm0-11.72a5.566,5.566,0,1,0,5.565,5.565A5.566,5.566,0,0,0,564.72,337.21Z" transform="translate(13647.635 -5840.555)" fill="#264653"/>
    <path id="Path_807" data-name="Path 807" d="M558.126,303.388v-.018c.384-.064.658-.2.658-.342,0-.314-.656-.313-1.674-.316v-.254c0-.054-.147-.1-.327-.1h-.065c-.181,0-.327.043-.327.1v.254h-.6v-.254c0-.054-.146-.1-.326-.1H555.4c-.18,0-.327.043-.327.1v.254h-1.019c-.18,0-.327.043-.327.1h0c0,.054.147.1.327.1h.281v.987h-.281c-.18,0-.327.043-.327.1v.137c0,.054.147.1.327.1h1.019v.22c0,.054.147.1.327.1h.068c.18,0,.326-.044.326-.1v-.22h.6v.22c0,.054.146.1.327.1h.065c.18,0,.327-.044.327-.1v-.22h.017c1.141,0,1.913-.219,1.913-.541C559.041,303.513,558.78,303.46,558.126,303.388Zm-.684-.308c0,.143-.359.176-.641.176h-1.027c-.072,0-.13-.017-.13-.039v-.26c0-.022.058-.039.13-.039h1.067C557.212,302.918,557.442,302.978,557.442,303.08Zm-.57.808h-1.1c-.072,0-.13-.018-.13-.04v-.376c0-.022.058-.039.13-.039h1.1c.548,0,.829.094.829.228,0,.1-.18.227-.829.227Z" transform="translate(13651.914 -5810.211)" fill="#264653"/>
  </g>
</svg>
