<svg xmlns="http://www.w3.org/2000/svg" width="31" height="31" viewBox="0 0 31 31">
  <g id="Binance-BNB-Icon-Logo.wine" transform="translate(-0.5 -0.5)">
    <circle id="Ellipse_23" data-name="Ellipse 23" cx="15.5" cy="15.5" r="15.5" transform="translate(0.5 0.5)" fill="#0b0e11"/>
    <path id="Path_190" data-name="Path 190" d="M20.18,22.741l4.348-4.348,4.35,4.35,2.53-2.53-6.88-6.88L17.65,20.211ZM15.863,22l2.53,2.53-2.53,2.53-2.53-2.53Zm4.316,4.317,4.348,4.348,4.35-4.35,2.531,2.529h0l-6.88,6.88L17.65,28.844l0,0Zm15.543-1.786-2.53,2.53-2.53-2.53L33.192,22Z" transform="translate(-9.028 -9.028)" fill="#f0b90b"/>
    <path id="Path_191" data-name="Path 191" d="M45.18,42.613h0l-2.567-2.567-2.569,2.569,0,0,2.565,2.565,2.568-2.569Z" transform="translate(-27.114 -27.114)" fill="#f0b90b"/>
  </g>
</svg>
