<svg xmlns="http://www.w3.org/2000/svg" width="18" height="18" viewBox="0 0 24.274 24.274">
  <g id="Group_275" data-name="Group 275" transform="translate(-83.027 -262.863)">
    <path id="Path_194" data-name="Path 194" d="M3881.362,228.161a2.039,2.039,0,0,1,.825.609q1.288,1.392,2.588,2.772a1.181,1.181,0,0,1,.341.855c-.005.577,0,1.154,0,1.73,0,.3-.146.473-.38.47s-.377-.185-.379-.479c0-.472,0-.944,0-1.442h-.636c-.49,0-.98.009-1.469-.005a1.445,1.445,0,0,1-1.409-1.438c-.008-.758,0-1.516,0-2.314H3870.6c-.405,0-.524.117-.524.519q0,9.387,0,18.773c0,.4.122.524.521.525.956,0,1.912,0,2.868,0a.37.37,0,0,1,.413.385.376.376,0,0,1-.407.37c-.055,0-.11,0-.166,0-.845,0-1.691-.025-2.536.008a1.307,1.307,0,0,1-1.451-.907V229.062a1.369,1.369,0,0,1,.9-.9Zm2.448,3.752-2.209-2.395c0,.632-.013,1.2,0,1.765a.655.655,0,0,0,.629.626C3882.738,231.925,3883.242,231.913,3883.81,231.913Z" transform="translate(-3786.292 34.702)" fill="#264655"/>
    <path id="Path_195" data-name="Path 195" d="M4131.935,228.161a2.677,2.677,0,0,1,.248.483,9.281,9.281,0,0,1,.215.994.273.273,0,0,0,.217.237,6.94,6.94,0,0,1,.763.318.294.294,0,0,0,.343-.025c.306-.21.618-.41.93-.61a.389.389,0,0,1,.573.054c.293.287.58.581.87.872a.388.388,0,0,1,.05.536c-.206.318-.407.639-.623.951a.3.3,0,0,0-.024.343c.124.255.211.526.332.782a.359.359,0,0,0,.2.182c.367.093.739.163,1.109.242a.406.406,0,0,1,.388.473c0,.395,0,.79,0,1.185a.392.392,0,0,1-.346.435c-.371.075-.74.16-1.112.231a.31.31,0,0,0-.26.223,11.7,11.7,0,0,1-.5,1.093.367.367,0,0,1-.538.171c-.193-.117-.216-.318-.107-.56.185-.408.361-.82.515-1.24a.482.482,0,0,1,.393-.354c.394-.076.786-.163,1.188-.247v-.715c-.4-.086-.794-.181-1.2-.255a.493.493,0,0,1-.4-.38,12.7,12.7,0,0,0-.487-1.174.493.493,0,0,1,.013-.55c.226-.333.441-.672.667-1.018l-.512-.506c-.337.22-.677.435-1.009.661a.493.493,0,0,1-.55.02c-.389-.187-.791-.349-1.2-.5a.478.478,0,0,1-.363-.384c-.077-.4-.17-.8-.258-1.2h-.712c-.084.4-.166.79-.249,1.182-.062.293-.228.426-.47.378-.223-.044-.333-.242-.277-.517.095-.464.182-.93.3-1.387a1.723,1.723,0,0,1,.258-.424Z" transform="translate(-4030.228 34.702)" fill="#264655"/>
    <path id="Path_196" data-name="Path 196" d="M3967.531,345.08h.288c.988,0,1.975,0,2.963,0a1.649,1.649,0,0,1,1.729,1.728q0,5.215,0,10.429a1.66,1.66,0,0,1-1.744,1.741q-7.7,0-15.407,0a1.661,1.661,0,0,1-1.783-1.772q-.005-3.33,0-6.661c0-1.232,0-2.464,0-3.7a1.652,1.652,0,0,1,1.78-1.77h3.2c0-.1.011-.187.011-.271,0-.521,0-1.043,0-1.564a1.3,1.3,0,0,1,1.337-1.331q3.14-.007,6.281,0a1.315,1.315,0,0,1,1.346,1.354C3967.535,343.86,3967.531,344.452,3967.531,345.08Zm4.223,5.4a6.863,6.863,0,0,1-.779.255c-1.214.245-2.431.475-3.648.709l-2.31.443c0,.229.014.442,0,.653a3.141,3.141,0,0,1-.109.7,1.963,1.963,0,0,1-3.825-.554c-.009-.266,0-.532,0-.8-.115-.024-.2-.044-.284-.06-1.62-.309-3.241-.612-4.859-.928-.534-.1-1.062-.242-1.6-.365,0,0,0,.043,0,.082q0,3.33,0,6.66a.891.891,0,0,0,.973.952h15.454a.906.906,0,0,0,.99-.984c0-.853,0-1.707,0-2.56Zm-10.718.615c.02-.036.034-.049.034-.062,0-.371,0-.742.006-1.114a.727.727,0,0,1,.809-.8q1.137,0,2.275,0a.749.749,0,0,1,.858.853q0,.565,0,1.13a.673.673,0,0,0,.1,0c1.557-.3,3.115-.592,4.671-.9a12.186,12.186,0,0,0,1.357-.315.844.844,0,0,0,.614-.9c-.015-.687,0-1.374,0-2.062,0-.754-.327-1.082-1.081-1.082h-15.142c-.11,0-.221,0-.332,0a.865.865,0,0,0-.856.844c-.016.813,0,1.627,0,2.44a.713.713,0,0,0,.4.656,2.256,2.256,0,0,0,.637.236c1.377.272,2.758.529,4.137.79C3960.023,350.9,3960.533,351,3961.035,351.091Zm5.737-6.04c0-.56,0-1.1,0-1.648s-.192-.732-.722-.732h-4c-.7,0-1.405,0-2.108,0-.339,0-.6.184-.605.474-.018.63-.006,1.261-.006,1.906h.833v-1.567h5.763v1.566Zm-4.929,4.829c0,.973,0,1.919,0,2.865a.643.643,0,0,0,.029.162,1.21,1.21,0,0,0,2.383-.307c.009-.868,0-1.736,0-2.6a.7.7,0,0,0-.02-.116Zm3.31-5.644h-4.218v.831h4.218Z" transform="translate(-3865.211 -71.843)" fill="#264655"/>
    <path id="Path_197" data-name="Path 197" d="M4149,283.525c-.1.394-.182.793-.3,1.181a.377.377,0,0,1-.527.285c-.208-.089-.27-.3-.169-.56a2.349,2.349,0,0,0-1.767-3.234c-.123-.023-.251-.019-.376-.033-.263-.029-.407-.181-.391-.412s.17-.341.427-.344a3.09,3.09,0,0,1,3.047,3.1Z" transform="translate(-4044.945 -14.236)" fill="#264655"/>
    <path id="Path_198" data-name="Path 198" d="M3935.342,308.906h2.533c.306,0,.478.132.483.365s-.182.39-.49.39q-2.545,0-5.09,0c-.308,0-.5-.186-.467-.432a.381.381,0,0,1,.427-.322C3933.605,308.9,3934.474,308.906,3935.342,308.906Z" transform="translate(-3845.29 -40.928)" fill="#264655"/>
    <path id="Path_199" data-name="Path 199" d="M3935.338,281.6q1.243,0,2.485,0c.094,0,.218-.018.275.032.108.094.248.234.245.352s-.143.257-.257.344c-.067.052-.2.028-.3.028h-4.9c-.386,0-.571-.12-.575-.373s.187-.385.587-.385Z" transform="translate(-3845.295 -15.353)" fill="#264655"/>
    <path id="Path_200" data-name="Path 200" d="M3934.1,336.7c-.442,0-.885,0-1.327,0-.279,0-.452-.147-.455-.373s.173-.383.447-.383q1.327,0,2.654,0c.284,0,.447.142.45.375s-.161.38-.442.382C3934.986,336.7,3934.544,336.7,3934.1,336.7Z" transform="translate(-3845.302 -66.247)" fill="#264655"/>
    <path id="Path_201" data-name="Path 201" d="M3899.7,336.632a1.792,1.792,0,0,1-.452-.268.323.323,0,0,1,.064-.466.749.749,0,0,1,.781-.005.321.321,0,0,1,.073.464A1.8,1.8,0,0,1,3899.7,336.632Z" transform="translate(-3814.254 -66.105)" fill="#264655"/>
    <path id="Path_202" data-name="Path 202" d="M3899.794,308.092a1.689,1.689,0,0,1,.417.2.348.348,0,0,1-.043.506.738.738,0,0,1-.8-.016.343.343,0,0,1-.013-.507A1.729,1.729,0,0,1,3899.794,308.092Z" transform="translate(-3814.326 -40.166)" fill="#264655"/>
    <path id="Path_203" data-name="Path 203" d="M3899.873,281.633c.321,0,.5.137.495.38s-.178.379-.519.379-.521-.135-.522-.379S3899.519,281.629,3899.873,281.633Z" transform="translate(-3814.399 -15.383)" fill="#264655"/>
    <path id="Path_204" data-name="Path 204" d="M4097.062,504.478a.378.378,0,0,1,.379-.372.373.373,0,1,1,0,.745A.379.379,0,0,1,4097.062,504.478Z" transform="translate(-3999.611 -223.766)" fill="#264655"/>
  </g>
</svg>
