<svg xmlns="http://www.w3.org/2000/svg" width="18.234" height="15.029" viewBox="0 0 18.234 15.029">
  <g id="Group_295" data-name="Group 295" transform="translate(-1253 -919.001)">
    <path id="Path_111" data-name="Path 111" d="M1545.576-790.151c.248-.267.475-.538.729-.781a4.934,4.934,0,0,1,3.912-1.456,4.815,4.815,0,0,1,4.2,3.354,5.56,5.56,0,0,1-.567,4.659,14.109,14.109,0,0,1-2.669,3.256,29.758,29.758,0,0,1-4.313,3.325,2.183,2.183,0,0,1-2.509.031,27.616,27.616,0,0,1-5.093-4.073,10.943,10.943,0,0,1-2.284-3.227,5.165,5.165,0,0,1,.626-5.529,4.775,4.775,0,0,1,6.412-1.014,6.181,6.181,0,0,1,1.425,1.3C1545.487-790.254,1545.532-790.2,1545.576-790.151Zm-8.046,2.838a4.055,4.055,0,0,0,.319,1.624,9.373,9.373,0,0,0,1.915,2.853,26.686,26.686,0,0,0,5.068,4.138,1.273,1.273,0,0,0,1.516,0,31.479,31.479,0,0,0,3.5-2.62,15.2,15.2,0,0,0,2.85-3.16,4.937,4.937,0,0,0,.859-3.727,3.8,3.8,0,0,0-4.95-2.94,4.691,4.691,0,0,0-2.5,2.126c-.3.493-.728.5-1.031.011a5.747,5.747,0,0,0-1.178-1.392,3.806,3.806,0,0,0-4.6-.327A3.945,3.945,0,0,0,1537.53-787.314Z" transform="translate(-283.46 1711.412)" fill="#bc2942"/>
    <path id="Path_119" data-name="Path 119" d="M12192.729-3.473a11.822,11.822,0,0,1,2.031-1.8c.992-.632.406-.722,1.4-.722s.676-.587,1.895.226,1.038-.677,1.67,1.218.722.993.9,2.888a4.341,4.341,0,0,1-.9,3.61,9.148,9.148,0,0,1-2.707,3.384c-1.129.677-2.436,1.354-3.294,1.85a9.3,9.3,0,0,1-1.534.722l-4.873-3.565s-2.031-2.662-2.256-2.752a13.521,13.521,0,0,1-1.174-2.256,4.765,4.765,0,0,1,0-1.76c.181-.993,2.391-2.843,2.391-2.843l1.039-.722a2.37,2.37,0,0,1,1.218,0,7.186,7.186,0,0,1,1.806.722c.5.316,1.173.451,1.488,1.038A1.7,1.7,0,0,0,12192.729-3.473Z" transform="translate(-10930.304 925.539)" fill="#bc2942"/>
  </g>
</svg>
