<svg xmlns="http://www.w3.org/2000/svg" width="18.99" height="18.99" viewBox="0 0 18.99 18.99">
  <g id="Icon_ionic-ios-close-circle-outline" data-name="Icon ionic-ios-close-circle-outline" transform="translate(-3.375 -3.375)">
    <path id="Path_353" data-name="Path 353" d="M19.459,18.425,17.053,16.02l2.406-2.406a.729.729,0,0,0-1.032-1.032l-2.406,2.406-2.406-2.406a.729.729,0,0,0-1.032,1.032L14.99,16.02l-2.406,2.406a.705.705,0,0,0,0,1.032.725.725,0,0,0,1.032,0l2.406-2.406,2.406,2.406a.733.733,0,0,0,1.032,0A.725.725,0,0,0,19.459,18.425Z" transform="translate(-3.152 -3.15)" fill="#264655"/>
    <path id="Path_354" data-name="Path 354" d="M12.87,4.653A8.213,8.213,0,1,1,7.059,7.059,8.162,8.162,0,0,1,12.87,4.653m0-1.278a9.495,9.495,0,1,0,9.495,9.495A9.493,9.493,0,0,0,12.87,3.375Z" fill="#264655"/>
  </g>
</svg>
