<svg xmlns="http://www.w3.org/2000/svg" width="18.133" height="15.867" viewBox="0 0 18.133 15.867">
  <g id="dashboard" transform="translate(-1470.25 -2257)">
    <path id="Path_910" data-name="Path 910" d="M179.139,199.756h-1.511a.378.378,0,0,1,0-.756h1.511a.378.378,0,0,1,0,.756Z" transform="translate(1295.267 2064.044)" fill="#d6df22"/>
    <path id="Path_911" data-name="Path 911" d="M179.139,231.756h-1.511a.378.378,0,0,1,0-.756h1.511a.378.378,0,0,1,0,.756Z" transform="translate(1295.267 2035.067)" fill="#d6df22"/>
    <path id="Path_914" data-name="Path 914" d="M179.139,263.756h-1.511a.378.378,0,1,1,0-.756h1.511a.378.378,0,0,1,0,.756Z" transform="translate(1295.267 2006.089)" fill="#d6df22"/>
    <path id="Path_908" data-name="Path 908" d="M169.494,150.867H155.139a1.889,1.889,0,0,1-1.889-1.889V136.889A1.889,1.889,0,0,1,155.139,135h14.356a1.889,1.889,0,0,1,1.889,1.889v12.089A1.889,1.889,0,0,1,169.494,150.867Zm-14.356-15.111a1.133,1.133,0,0,0-1.133,1.133v12.089a1.133,1.133,0,0,0,1.133,1.133h14.356a1.133,1.133,0,0,0,1.133-1.133V136.889a1.133,1.133,0,0,0-1.133-1.133Z" transform="translate(1317 2122)" fill="#d6df22"/>
    <path id="Path_909" data-name="Path 909" d="M171.006,167.756H153.628a.378.378,0,0,1,0-.756h17.378a.378.378,0,0,1,0,.756Z" transform="translate(1317 2093.022)" fill="#d6df22"/>
    <path id="Path_912" data-name="Path 912" d="M244.428,199.756h-6.8a.378.378,0,0,1,0-.756h6.8a.378.378,0,0,1,0,.756Z" transform="translate(1240.933 2064.044)" fill="#d6df22"/>
    <path id="Path_913" data-name="Path 913" d="M244.428,231.756h-6.8a.378.378,0,0,1,0-.756h6.8a.378.378,0,0,1,0,.756Z" transform="translate(1240.933 2035.067)" fill="#d6df22"/>
    <path id="Path_915" data-name="Path 915" d="M244.428,263.756h-6.8a.378.378,0,1,1,0-.756h6.8a.378.378,0,1,1,0,.756Z" transform="translate(1240.933 2006.089)" fill="#d6df22"/>
  </g>
</svg>
