<svg xmlns="http://www.w3.org/2000/svg" width="18.007" height="18.008" viewBox="0 0 18.007 18.008">
  <g id="g-authenticator" transform="translate(-1297 -50)">
    <g id="NewGroup2-3" transform="translate(1297 50)">
      <line id="Line_25" data-name="Line 25" transform="translate(13.522 14.533)" fill="none" stroke="#000" stroke-linecap="round" stroke-linejoin="round" stroke-width="0"/>
      <path id="Path_147" data-name="Path 147" d="M1300.7,116.623a.243.243,0,0,0-.243-.243h-3.216a.243.243,0,0,0,0,.486h.8v1.719a.243.243,0,1,0,.486,0v-1.719h1.927A.243.243,0,0,0,1300.7,116.623Z" transform="translate(-1297 -109.307)" fill="#d6df22"/>
      <path id="Path_148" data-name="Path 148" d="M1320.837,136.465h-1.589V135.31a.244.244,0,0,0-.487,0v1.155h-1.142a.244.244,0,1,0,0,.487h3.218a.244.244,0,0,0,0-.487Z" transform="translate(-1315.19 -126.016)" fill="#d6df22"/>
      <path id="Path_149" data-name="Path 149" d="M1350.01,103.532a.244.244,0,0,0-.243-.244h-.865v-4.56h.865a.243.243,0,0,0,0-.486h-.865V96.31a.244.244,0,0,0-.487,0V97.3h-1.445a.244.244,0,0,0,0,.487h1.445v2.061h-3.446a.244.244,0,0,0,0,.487h3.446v1.279h-1.155a.244.244,0,0,0,0,.487h1.155v1.184h-1.782a.244.244,0,0,0,0,.487h1.782v.858a.244.244,0,1,0,.487,0v-.858h.865a.243.243,0,0,0,.243-.243Z" transform="translate(-1339.654 -91.172)" fill="#d6df22"/>
      <path id="Path_150" data-name="Path 150" d="M1386.771,176.955a.243.243,0,0,0-.243.243v1.026h-1.509a.244.244,0,0,0,0,.487h1.509v1.718a.244.244,0,1,0,.487,0v-3.236h0a.244.244,0,0,0-.244-.243Z" transform="translate(-1375.437 -163.423)" fill="#d6df22"/>
      <path id="Path_151" data-name="Path 151" d="M1450.1,164.12h-1.27a.244.244,0,0,0,0,.487h1.027v1.043a.244.244,0,0,0,.487,0v-1.286A.245.245,0,0,0,1450.1,164.12Z" transform="translate(-1432.448 -151.96)" fill="#d6df22"/>
      <path id="Path_152" data-name="Path 152" d="M1404.918,124.107a.245.245,0,0,0-.244-.244h-.564v-2.618a.243.243,0,1,0-.486,0v.9H1401.9V119.29a.244.244,0,0,0-.487,0v3.1a.243.243,0,0,0,.243.243h1.972v1.233h-2.165a.244.244,0,0,0,0,.487h3.215A.244.244,0,0,0,1404.918,124.107Z" transform="translate(-1390.125 -111.703)" fill="#d6df22"/>
      <path id="Path_153" data-name="Path 153" d="M1445.587,118.92a.243.243,0,0,0-.243.243v2.056h-1.565a.244.244,0,0,0,0,.487h1.565v.6a.244.244,0,1,0,.487,0v-3.142A.244.244,0,0,0,1445.587,118.92Z" transform="translate(-1427.936 -111.577)" fill="#d6df22"/>
      <path id="Path_154" data-name="Path 154" d="M1437.5,187.947h-.72v-2.9a.244.244,0,1,0-.487,0v1h-1.565a.244.244,0,0,0,0,.487h1.565v1.41h-.544a.244.244,0,0,0,0,.487h1.752a.244.244,0,1,0,0-.487Z" transform="translate(-1419.851 -170.427)" fill="#d6df22"/>
      <path id="Path_155" data-name="Path 155" d="M1312.267,179.017h1.763v1.763h-1.763Zm-.243,2.25h2.25a.244.244,0,0,0,.243-.244v-2.25a.243.243,0,0,0-.243-.243h-2.25a.244.244,0,0,0-.244.243v2.25A.245.245,0,0,0,1312.024,181.267Z" transform="translate(-1310.205 -164.835)" fill="#d6df22"/>
      <path id="Path_156" data-name="Path 156" d="M1363.38,50.243a.244.244,0,0,0,.243.244h1.445v1.042a.244.244,0,1,0,.487,0V50.243a.244.244,0,0,0-.244-.243h-1.688A.243.243,0,0,0,1363.38,50.243Z" transform="translate(-1356.307 -50)" fill="#d6df22"/>
      <path id="Path_157" data-name="Path 157" d="M1395.51,50.37v1.962a.244.244,0,0,0,.487,0V50.37a.244.244,0,0,0-.487,0Z" transform="translate(-1385.014 -50.127)" fill="#d6df22"/>
      <path id="Path_158" data-name="Path 158" d="M1314.03,67.031h-1.763V65.267h1.763Zm.244-2.251h-2.25a.245.245,0,0,0-.244.244v2.25a.244.244,0,0,0,.244.243h2.25a.243.243,0,0,0,.243-.243v-2.25A.244.244,0,0,0,1314.274,64.78Z" transform="translate(-1310.205 -63.205)" fill="#d6df22"/>
      <path id="Path_159" data-name="Path 159" d="M1427.78,67.031h-1.765V65.267h1.765Zm.243-2.251h-2.25a.244.244,0,0,0-.243.244v2.25a.243.243,0,0,0,.243.243h2.25a.244.244,0,0,0,.244-.243v-2.25A.245.245,0,0,0,1428.023,64.78Z" transform="translate(-1411.835 -63.205)" fill="#d6df22"/>
      <path id="Path_160" data-name="Path 160" d="M1411.2,50.487h4.914V55.4H1411.2Zm-.487-.244v5.4a.245.245,0,0,0,.244.244h5.4a.243.243,0,0,0,.243-.244v-5.4a.243.243,0,0,0-.243-.243h-5.4a.244.244,0,0,0-.244.243Z" transform="translate(-1398.594 -50)" fill="#d6df22"/>
      <path id="Path_161" data-name="Path 161" d="M1297.514,50.487h4.914V55.4h-4.914Zm-.244,5.4h5.4a.244.244,0,0,0,.243-.244v-5.4a.243.243,0,0,0-.243-.243h-5.4a.243.243,0,0,0-.243.243v5.4a.244.244,0,0,0,.243.244Z" transform="translate(-1297.027 -50)" fill="#d6df22"/>
      <path id="Path_162" data-name="Path 162" d="M1425.323,116.866h2.025a.243.243,0,0,0,0-.486h-2.025a.243.243,0,0,0,0,.486Z" transform="translate(-1411.433 -109.307)" fill="#d6df22"/>
      <path id="Path_163" data-name="Path 163" d="M1419.836,187.594v-3.231a.243.243,0,0,0-.486,0v3.231a.243.243,0,1,0,.486,0Z" transform="translate(-1406.313 -169.829)" fill="#d6df22"/>
      <path id="Path_164" data-name="Path 164" d="M1363.623,64.833h2.246a.243.243,0,0,0,0-.486h-2V62.313a.243.243,0,0,0-.486,0v2.275h0a.243.243,0,0,0,.243.243Z" transform="translate(-1356.307 -60.784)" fill="#d6df22"/>
      <path id="Path_165" data-name="Path 165" d="M1302.4,169.123h-4.914v-4.914h4.914Zm.486.244v-5.4a.243.243,0,0,0-.243-.243h-5.4a.243.243,0,0,0-.243.243v5.4a.243.243,0,0,0,.243.243h5.4a.243.243,0,0,0,.243-.243Z" transform="translate(-1297 -151.603)" fill="#d6df22"/>
      <path id="Path_166" data-name="Path 166" d="M1363.853,188.191v-1h1.437a.243.243,0,0,0,.243-.243h0a.244.244,0,0,0-.243-.244h-1.437v-1.653a.244.244,0,1,0-.487,0v3.142a.243.243,0,0,0,.243.243h0a.243.243,0,0,0,.243-.243Z" transform="translate(-1356.294 -170.427)" fill="#d6df22"/>
    </g>
  </g>
</svg>
