<svg xmlns="http://www.w3.org/2000/svg" width="13.428" height="18.041" viewBox="0 0 13.428 18.041">
  <g id="login-logs" transform="translate(-1512 -3062.33)">
    <path id="Path_988" data-name="Path 988" d="M441.247,319.33h-8.761a.32.32,0,0,0,0,.641h8.761a.627.627,0,0,1,.627.627v15.74a.32.32,0,1,0,.641,0V320.6a1.267,1.267,0,0,0-1.268-1.268Z" transform="translate(1082.913 2743)" fill="#d6df22"/>
    <path id="Path_989" data-name="Path 989" d="M414.734,329.32H405.79a.639.639,0,0,0-.453.187l-2.154,2.156a.64.64,0,0,0-.183.453v13.551a.641.641,0,0,0,.641.641h11.093a.641.641,0,0,0,.641-.641V329.96a.64.64,0,0,0-.641-.64Zm-.641,15.705h-9.817V332.38l1.78-1.78h8.038Z" transform="translate(1109 2734.064)" fill="#d6df22"/>
    <g id="Group_12" data-name="Group 12" transform="translate(1511.684 3065.994)">
      <path id="Path_10" data-name="Path 10" d="M5.851,3.513a.671.671,0,0,1,1.3,0,.671.671,0,0,0,1,.415.671.671,0,0,1,.922.922.671.671,0,0,0,.415,1,.671.671,0,0,1,0,1.3.671.671,0,0,0-.415,1,.671.671,0,0,1-.922.922.671.671,0,0,0-1,.415.671.671,0,0,1-1.3,0,.671.671,0,0,0-1-.415.671.671,0,0,1-.922-.922.671.671,0,0,0-.415-1,.671.671,0,0,1,0-1.3.671.671,0,0,0,.415-1,.671.671,0,0,1,.922-.922.671.671,0,0,0,1-.415Z" fill="none" stroke="#d6df22" stroke-linecap="round" stroke-linejoin="round" stroke-width="1"/>
      <path id="Path_11" data-name="Path 11" d="M11.335,10.168A1.168,1.168,0,1,1,10.168,9,1.168,1.168,0,0,1,11.335,10.168Z" transform="translate(-3.665 -3.665)" fill="none" stroke="#d6df22" stroke-linecap="round" stroke-linejoin="round" stroke-width="1"/>
    </g>
  </g>
</svg>
