<svg xmlns="http://www.w3.org/2000/svg" width="19.157" height="19.089" viewBox="0 0 19.157 19.089">
  <g id="administrator" transform="translate(-1397.448 -2622.553)">
    <g id="Group_248" data-name="Group 248" transform="translate(1398 2623.053)">
      <path id="Path_1010" data-name="Path 1010" d="M15.28,12a4.871,4.871,0,1,1-4.843,4.871A4.857,4.857,0,0,1,15.28,12Z" transform="translate(-8.584 -12)" fill="none" stroke="#d6df22" stroke-width="1" fill-rule="evenodd"/>
      <path id="Path_1011" data-name="Path 1011" d="M9.928,38.3A15.284,15.284,0,0,1,6.7,40.153l-.462,4.639H16.392" transform="translate(-6.234 -26.703)" fill="none" stroke="#d6df22" stroke-width="1" fill-rule="evenodd"/>
    </g>
    <g id="Group_249" data-name="Group 249" transform="translate(1407.014 2631.95)">
      <path id="Path_10" data-name="Path 10" d="M6.74,3.672a.88.88,0,0,1,1.711,0,.88.88,0,0,0,1.314.544.881.881,0,0,1,1.21,1.21.88.88,0,0,0,.544,1.313.88.88,0,0,1,0,1.711.88.88,0,0,0-.544,1.314.881.881,0,0,1-1.21,1.21.88.88,0,0,0-1.313.544.88.88,0,0,1-1.711,0,.88.88,0,0,0-1.314-.544.881.881,0,0,1-1.21-1.21.88.88,0,0,0-.544-1.313.88.88,0,0,1,0-1.711.88.88,0,0,0,.544-1.314.881.881,0,0,1,1.21-1.21A.88.88,0,0,0,6.74,3.672Z" transform="translate(-3 -3)" fill="none" stroke="#d6df22" stroke-linecap="round" stroke-linejoin="round" stroke-width="0.8"/>
      <path id="Path_11" data-name="Path 11" d="M12.064,10.532A1.532,1.532,0,1,1,10.532,9,1.532,1.532,0,0,1,12.064,10.532Z" transform="translate(-5.936 -5.936)" fill="none" stroke="#d6df22" stroke-linecap="round" stroke-linejoin="round" stroke-width="0.8"/>
    </g>
  </g>
</svg>
